<svg xmlns="http://www.w3.org/2000/svg" xmlns:xlink="http://www.w3.org/1999/xlink" version="1.1" xml:space="preserve" width="48" height="48" style=""><rect id="backgroundrect" width="100%" height="100%" x="0" y="0" fill="none" stroke="none"/><metadata><rdf:RDF xmlns:rdf="http://www.w3.org/1999/02/22-rdf-syntax-ns#" xmlns:rdfs="http://www.w3.org/2000/01/rdf-schema#" xmlns:dc="http://purl.org/dc/elements/1.1/"><rdf:Description about="https://iconscout.com/legal#licenses" dc:title="user-ciecle-round-account-person" dc:description="user-ciecle-round-account-person" dc:publisher="Iconscout" dc:date="2018-05-24" dc:format="image/svg+xml" dc:language="en"><dc:creator><rdf:Bag><rdf:li>Becris .</rdf:li></rdf:Bag></dc:creator></rdf:Description></rdf:RDF></metadata><g class="currentLayer" style=""><title>Layer 1</title><path d="M24,0 C10.767,0 0,10.767 0,24 c0,7.091 3.094,13.472 8,17.869 v0.017000000000000005 l0.3480000000000001,0.30000000000000004 c0.06100000000000001,0.05300000000000001 0.128,0.09700000000000003 0.19000000000000003,0.14900000000000002 a24.496,24.496 0 0 0 3.189,2.279 c0.08500000000000002,0.05100000000000001 0.17200000000000001,0.09900000000000003 0.257,0.14800000000000002 c0.557,0.32400000000000007 1.126,0.6290000000000001 1.71,0.908 l0.018000000000000002,0.008000000000000002 a23.838,23.838 0 0 0 3.915,1.456 l0.07500000000000001,0.021000000000000005 c0.6410000000000001,0.17500000000000002 1.2930000000000001,0.32200000000000006 1.9540000000000002,0.44300000000000006 l0.18500000000000003,0.03300000000000001 a24.17,24.17 0 0 0 1.939,0.262 c0.07500000000000001,0.007000000000000002 0.15000000000000002,0.011000000000000003 0.22400000000000003,0.017000000000000005 c0.6590000000000001,0.05500000000000001 1.323,0.09000000000000002 1.996,0.09000000000000002 s1.3370000000000002,-0.035 1.996,-0.09000000000000002 c0.07500000000000001,-0.006000000000000002 0.15000000000000002,-0.010000000000000002 0.22400000000000003,-0.017000000000000005 c0.6550000000000001,-0.06000000000000001 1.3010000000000002,-0.15000000000000002 1.939,-0.262 l0.18500000000000003,-0.03300000000000001 a23.451,23.451 0 0 0 1.9540000000000002,-0.44300000000000006 l0.07500000000000001,-0.021000000000000005 a23.838,23.838 0 0 0 3.915,-1.456 l0.018000000000000002,-0.008000000000000002 a24.261,24.261 0 0 0 1.71,-0.908 c0.08600000000000002,-0.05000000000000001 0.17200000000000001,-0.09700000000000003 0.257,-0.14800000000000002 a24.123,24.123 0 0 0 1.487,-0.9680000000000001 c0.12400000000000001,-0.08700000000000002 0.24800000000000003,-0.17400000000000002 0.37100000000000005,-0.264 c0.456,-0.3340000000000001 0.9,-0.6830000000000002 1.331,-1.047 c0.06200000000000001,-0.05200000000000001 0.129,-0.09600000000000003 0.19000000000000003,-0.14900000000000002 l0.3480000000000001,-0.30000000000000004 v-0.017000000000000005 c4.906,-4.398 8,-10.778 8,-17.869 C48,10.767 37.233,0 24,0 zm0,24 c-4.411,0 -8,-3.589 -8,-8 s3.589,-8 8,-8 s8,3.589 8,8 s-3.589,8 -8,8 zm3,2 c6.065,0 11,4.9350000000000005 11,11 v3.958 c-0.04200000000000001,0.035 -0.08600000000000002,0.06700000000000002 -0.128,0.10200000000000001 c-0.3950000000000001,0.32100000000000006 -0.8,0.6260000000000001 -1.214,0.918 c-0.09200000000000003,0.06500000000000002 -0.18200000000000002,0.132 -0.274,0.19500000000000003 c-0.44700000000000006,0.30500000000000005 -0.906,0.5910000000000001 -1.373,0.8620000000000001 l-0.257,0.14800000000000002 a21.799,21.799 0 0 1 -6.871,2.468 l-0.171,0.031000000000000007 a22.27,22.27 0 0 1 -1.715,0.22500000000000003 c-0.07900000000000001,0.007000000000000002 -0.15900000000000003,0.012000000000000002 -0.23900000000000002,0.018000000000000002 c-0.5830000000000001,0.04500000000000001 -1.169,0.07500000000000001 -1.758,0.07500000000000001 s-1.175,-0.030000000000000006 -1.758,-0.07700000000000001 l-0.23900000000000002,-0.018000000000000002 a21.789,21.789 0 0 1 -1.8860000000000001,-0.256 a22.013,22.013 0 0 1 -5.212,-1.6260000000000001 l-0.16100000000000003,-0.07300000000000001 a21.799,21.799 0 0 1 -1.7550000000000001,-0.917 c-0.467,-0.27 -0.926,-0.557 -1.373,-0.8620000000000001 c-0.09300000000000003,-0.06300000000000001 -0.18300000000000002,-0.13 -0.274,-0.19500000000000003 a21.826,21.826 0 0 1 -1.214,-0.918 c-0.04200000000000001,-0.03400000000000001 -0.08600000000000002,-0.06700000000000002 -0.128,-0.10200000000000001 V37 c0,-6.065 4.9350000000000005,-11 11,-11 h6 zm13,13.076 V37 c0,-6.271 -4.464,-11.519 -10.38,-12.735 A9.996,9.996 0 0 0 34,16 c0,-5.514 -4.486,-10 -10,-10 s-10,4.486 -10,10 a9.996,9.996 0 0 0 4.38,8.265 C12.464,25.481 8,30.729 8,37 v2.076 C4.284,35.135 2,29.831 2,24 C2,11.869 11.869,2 24,2 s22,9.869 22,22 c0,5.831 -2.284,11.135 -6,15.076 z" id="Layer_1" class="selected" fill="#ffffff" fill-opacity="1"/></g></svg>