<?xml version="1.0" standalone="no"?>
<!DOCTYPE svg PUBLIC "-//W3C//DTD SVG 20010904//EN"
 "http://www.w3.org/TR/2001/REC-SVG-20010904/DTD/svg10.dtd">
<svg version="1.0" xmlns="http://www.w3.org/2000/svg"
 width="1000.000000pt" height="380.000000pt" viewBox="0 0 1000.000000 380.000000"
 preserveAspectRatio="xMidYMid meet">
<metadata>
Created by potrace 1.15, written by Peter Selinger 2001-2017
</metadata>
<g transform="translate(0.000000,380.000000) scale(0.100000,-0.100000)"
fill="#000000" stroke="none">
<path d="M2339 3596 c-2 -2 -160 -6 -351 -10 -191 -3 -353 -8 -360 -10 -7 -3
-80 -7 -163 -10 -82 -4 -168 -8 -190 -11 -22 -2 -112 -11 -200 -20 -324 -33
-552 -89 -619 -150 -131 -119 103 -261 723 -440 145 -41 493 -132 536 -139 17
-2 62 -13 100 -24 109 -30 135 -34 135 -17 0 16 0 16 -376 108 -150 37 -294
74 -320 82 -237 71 -346 106 -378 119 -21 9 -40 15 -44 14 -4 -1 -18 4 -32 9
-14 6 -47 20 -75 31 -166 67 -275 142 -275 188 0 100 365 181 985 219 628 37
1792 42 2705 10 558 -20 751 -27 1025 -40 171 -8 344 -17 385 -20 41 -2 122
-7 180 -10 192 -10 274 -15 410 -25 74 -6 171 -12 215 -15 44 -3 103 -8 130
-10 28 -3 86 -7 130 -10 85 -6 383 -33 450 -41 22 -2 58 -6 80 -9 22 -2 67 -7
100 -10 33 -3 125 -16 205 -27 167 -25 200 -27 197 -13 -3 12 0 12 -142 35
-137 23 -150 24 -340 45 -151 16 -174 18 -410 40 -114 10 -581 44 -685 50 -47
2 -197 11 -335 19 -687 42 -1412 70 -2245 86 -493 10 -1143 13 -1151 6z"/>
<path d="M8493 3460 c4 -16 2 -32 -2 -35 -5 -3 -23 -30 -40 -60 -32 -56 -38
-60 -116 -70 -74 -10 -260 -15 -271 -7 -6 4 -13 14 -16 22 -2 8 -13 15 -23 15
-10 0 -45 31 -79 72 -66 77 -65 76 -84 65 -10 -7 -9 -16 4 -48 9 -21 19 -41
23 -44 3 -3 6 -9 7 -15 0 -5 10 -32 22 -59 13 -27 21 -56 20 -64 -2 -9 -39
-28 -90 -46 -49 -17 -88 -34 -88 -37 0 -17 36 -17 88 0 95 32 127 35 164 16
18 -10 41 -22 51 -27 9 -4 40 -9 67 -9 28 -1 50 -6 50 -10 0 -5 -7 -9 -15 -9
-8 0 -23 -4 -33 -9 -9 -5 -28 -13 -42 -18 -14 -6 -38 -16 -55 -23 -16 -7 -41
-17 -55 -23 -14 -5 -33 -13 -42 -18 -25 -13 -44 -11 -57 5 -12 14 -35 16 -46
4 -3 -3 7 -16 22 -28 15 -12 26 -25 23 -28 -11 -15 60 -2 125 23 39 14 88 32
110 39 80 28 149 56 157 64 6 6 21 -3 38 -19 49 -50 134 -32 136 29 0 17 2 33
5 36 4 5 144 19 172 18 9 0 17 2 17 6 0 4 30 8 67 9 57 2 72 7 102 31 20 16
36 35 36 43 0 7 -19 27 -43 43 -38 27 -52 31 -127 33 -47 1 -85 -1 -85 -5 0
-4 -16 -6 -36 -4 -34 4 -36 6 -29 36 3 17 7 41 8 54 1 12 5 22 10 22 4 0 1 14
-8 30 -21 41 -50 41 -42 0z"/>
<path d="M2823 2960 c-18 -8 -85 -16 -143 -20 -13 0 -13 -1 0 -10 13 -8 13
-10 -2 -10 -10 0 -32 -13 -50 -29 -37 -33 -34 -48 14 -84 24 -18 27 -18 54 -2
25 15 26 15 9 1 -17 -14 -18 -18 -5 -26 20 -13 57 -13 65 0 9 15 27 12 19 -2
-4 -7 10 3 32 22 21 19 31 26 23 15 -23 -29 -31 -55 -16 -55 19 0 37 21 37 42
0 26 48 68 77 68 25 0 25 -5 6 -57 -3 -7 -2 -13 1 -13 9 0 29 52 28 73 -1 17
28 24 42 10 3 -4 16 -8 27 -10 12 -2 39 -17 60 -34 21 -17 43 -28 48 -25 5 3
11 -3 14 -14 5 -19 5 -19 46 1 23 11 41 23 41 28 0 5 -31 16 -69 26 -38 9 -78
23 -88 31 -17 12 -16 13 9 14 15 0 29 -4 32 -9 3 -5 26 -12 51 -15 24 -4 47
-11 50 -17 9 -13 35 -11 35 3 0 6 -7 20 -17 30 -20 22 -1 24 21 2 26 -26 20
-66 -14 -89 -16 -11 -30 -22 -30 -25 0 -3 22 -23 50 -44 27 -21 84 -74 125
-118 l75 -79 40 22 c22 13 40 27 40 32 0 4 -11 23 -25 41 -14 18 -25 37 -25
43 0 14 -50 58 -87 77 -18 9 -33 19 -33 22 0 2 10 -1 23 -7 l22 -12 -22 25
c-31 33 -29 39 10 31 l32 -6 -28 27 c-15 14 -36 26 -47 26 -10 0 -25 7 -34 15
-19 20 -95 47 -108 39 -5 -3 -32 4 -60 16 -34 15 -64 21 -87 17 -23 -3 -41 1
-49 9 -16 18 -102 19 -102 2 0 -9 -2 -10 -8 -2 -8 14 -77 16 -109 4z"/>
<path d="M2625 2921 c-6 -5 -28 -14 -50 -21 -67 -21 -217 -103 -254 -139 -20
-19 -40 -35 -45 -35 -5 -1 -10 -10 -12 -21 -2 -15 3 -20 21 -21 14 -1 25 4 25
10 0 20 46 58 66 54 11 -1 30 5 44 15 28 20 78 23 77 5 -1 -44 5 -58 28 -64
18 -5 34 2 65 26 22 17 44 29 49 26 5 -4 12 -2 15 3 6 9 -63 58 -75 54 -10 -3
2 50 15 66 6 8 25 22 41 33 17 10 23 18 15 18 -9 0 -20 -4 -25 -9z"/>
<path d="M7209 2832 c-121 -68 -91 1 -364 -828 -136 -412 -253 -760 -262 -772
-17 -27 -55 -45 -135 -62 l-58 -13 0 -39 0 -38 290 0 290 0 0 38 0 38 -69 12
c-77 13 -117 28 -125 47 -2 7 27 112 67 234 l71 221 272 0 271 0 77 -223 c42
-123 74 -230 71 -239 -8 -21 -46 -37 -110 -44 l-55 -7 0 -38 0 -39 305 0 305
0 0 40 c0 31 -4 40 -17 40 -10 0 -35 5 -56 11 -84 23 -72 -4 -376 864 -154
440 -283 808 -287 818 -9 25 -32 21 -105 -21z m84 -684 c59 -172 107 -316 107
-320 0 -5 -97 -8 -215 -8 -118 0 -215 3 -215 8 0 16 204 632 210 632 3 0 54
-141 113 -312z"/>
<path d="M640 2815 c-63 -8 -166 -24 -227 -36 l-113 -21 0 -32 c0 -17 3 -42 7
-55 6 -22 9 -23 62 -17 31 4 73 9 94 13 l37 6 0 -726 0 -725 -46 -21 c-25 -12
-67 -27 -95 -33 -48 -11 -49 -12 -49 -50 l0 -39 443 3 442 3 88 31 c293 105
478 344 527 682 18 122 8 376 -18 474 -58 216 -188 378 -377 471 -136 68 -201
80 -445 83 -143 2 -254 -2 -330 -11z m425 -130 c266 -68 425 -271 465 -595 30
-247 -16 -472 -131 -645 -62 -92 -122 -145 -219 -193 -67 -32 -85 -37 -172
-40 -127 -6 -184 3 -214 33 l-24 24 0 716 0 715 118 0 c72 0 141 -6 177 -15z"/>
<path d="M8470 2815 c-63 -8 -166 -24 -227 -36 l-113 -21 0 -32 c0 -17 3 -42
7 -55 6 -22 9 -23 62 -17 31 4 73 9 94 13 l37 6 0 -726 0 -725 -46 -21 c-25
-12 -67 -27 -95 -33 -48 -11 -49 -12 -49 -50 l0 -39 443 3 442 3 88 31 c293
105 478 344 527 682 18 122 8 376 -18 474 -58 216 -188 378 -377 471 -136 68
-201 80 -445 83 -143 2 -254 -2 -330 -11z m425 -130 c266 -68 425 -271 465
-595 30 -247 -16 -472 -131 -645 -62 -92 -122 -145 -219 -193 -67 -32 -85 -37
-172 -40 -127 -6 -184 3 -214 33 l-24 24 0 716 0 715 118 0 c72 0 141 -6 177
-15z"/>
<path d="M4200 2751 l0 -38 50 -6 c27 -3 71 -15 97 -27 l46 -20 -6 -392 c-4
-215 -7 -537 -7 -715 l0 -323 -32 -20 c-18 -11 -63 -27 -100 -37 l-68 -17 0
-38 0 -38 285 0 285 0 0 38 c0 38 -1 39 -49 50 -28 6 -70 21 -95 33 l-46 21 1
417 c1 229 4 493 8 588 l6 172 285 -659 285 -660 51 0 52 0 220 513 c122 281
249 579 284 660 l63 149 6 -69 c4 -37 8 -301 9 -587 2 -432 0 -520 -11 -527
-23 -15 -113 -47 -152 -54 -35 -7 -37 -9 -37 -46 l0 -39 330 0 330 0 0 38 0
38 -68 17 c-37 10 -81 26 -99 36 l-31 19 -7 544 c-3 298 -5 624 -3 723 l3 179
55 18 c30 9 70 17 88 17 31 1 32 3 32 41 l0 40 -230 0 c-227 0 -230 0 -244
-22 -11 -18 -276 -625 -540 -1241 -12 -26 -26 4 -256 525 -134 304 -263 595
-287 646 l-44 92 -229 0 -230 0 0 -39z"/>
<path d="M3195 2770 c-3 -5 -3 -10 2 -10 4 0 18 -15 31 -33 31 -46 30 -106 -2
-136 l-25 -23 22 -45 c22 -44 23 -45 62 -40 22 4 71 15 108 27 l68 21 -22 30
c-15 22 -25 27 -32 20 -16 -16 -49 -13 -74 8 -35 29 -30 48 12 45 19 -2 35 -2
35 0 0 6 -143 126 -162 137 -11 6 -19 5 -23 -1z"/>
<path d="M2967 2732 c-21 -3 -27 -8 -22 -21 3 -9 6 -35 7 -58 1 -31 6 -43 20
-46 10 -3 21 -13 25 -22 7 -19 -9 -51 -24 -48 -4 1 -9 -19 -10 -43 l-1 -44 48
0 c26 0 61 3 77 6 l30 6 -14 40 c-7 21 -20 49 -28 61 -9 15 -11 27 -5 37 15
24 12 37 -12 45 -14 4 -18 8 -10 12 17 7 15 24 -3 17 -9 -4 -15 0 -15 9 0 27
-33 53 -63 49z"/>
<path d="M2834 2614 c-2 -32 -19 -50 -52 -57 -15 -3 -49 -26 -77 -50 l-49 -44
69 -6 c62 -5 72 -4 84 14 17 24 38 24 80 -2 18 -11 36 -18 39 -14 10 10 -40
54 -69 60 -38 9 -37 19 6 44 19 11 35 24 35 28 0 16 -16 32 -40 41 -22 9 -25
7 -26 -14z"/>
<path d="M2224 2535 c-9 -13 -23 -27 -32 -29 -18 -6 -88 -105 -121 -173 l-21
-42 42 -35 c23 -20 44 -36 48 -36 5 0 94 185 95 200 1 3 4 14 7 25 4 11 9 41
13 68 7 53 -5 62 -31 22z"/>
<path d="M3448 2505 c-3 -3 -46 -16 -97 -29 -50 -12 -92 -25 -93 -27 0 -2 15
-53 35 -114 19 -60 41 -136 48 -167 7 -32 15 -58 20 -58 13 0 234 58 261 69
27 10 27 10 11 48 -26 64 -84 175 -119 231 -30 47 -51 62 -66 47z"/>
<path d="M3200 2442 c0 -5 -19 -8 -42 -8 -24 0 -78 0 -122 -2 -66 -2 -77 -4
-67 -16 6 -8 17 -33 24 -57 8 -28 21 -48 36 -56 31 -15 41 -31 41 -69 0 -17 9
-43 20 -57 11 -14 20 -30 20 -35 0 -17 -27 -21 -48 -6 -11 8 -27 11 -36 8 -23
-9 -20 25 4 56 29 37 24 42 -20 19 -43 -23 -49 -34 -48 -96 l1 -43 73 0 c87 0
276 20 287 30 9 8 -20 131 -61 258 -20 62 -30 82 -44 82 -10 0 -18 -4 -18 -8z"/>
<path d="M1976 2276 c-40 -126 -56 -358 -32 -476 15 -76 30 -126 41 -140 7 -8
20 -36 30 -61 9 -26 33 -62 53 -82 36 -34 132 -94 132 -83 0 3 -9 38 -20 78
-15 58 -40 211 -40 250 0 4 -26 21 -57 38 -63 33 -115 76 -132 108 -20 38 -11
36 23 -4 32 -38 151 -112 162 -101 3 3 1 22 -5 43 -5 22 -15 84 -22 140 -10
90 -10 106 6 154 l18 53 -29 21 c-16 12 -37 29 -47 39 -17 17 -18 16 -27 -7
-26 -71 -51 -169 -59 -236 -6 -58 -9 -65 -10 -30 -1 55 22 166 50 241 19 52
19 60 6 98 l-14 42 -27 -85z"/>
<path d="M3801 2246 c-8 -9 -10 -35 -5 -79 6 -62 5 -66 -19 -82 -36 -23 -60
-7 -75 50 -22 82 -25 40 -4 -47 11 -46 22 -92 25 -103 2 -15 6 -11 14 17 7 23
33 59 67 92 31 31 56 60 56 66 0 21 18 9 24 -16 4 -15 9 -24 13 -21 8 8 -37
137 -48 137 -6 0 -5 -9 1 -21 6 -11 9 -25 7 -32 -2 -7 -11 3 -21 21 -19 37
-19 37 -35 18z"/>
<path d="M3599 2145 c-19 -7 -80 -23 -135 -35 -54 -13 -100 -24 -102 -25 -1
-1 4 -44 12 -96 8 -52 18 -135 22 -185 l6 -92 82 18 c45 10 107 25 137 34 53
16 56 19 77 69 22 51 22 56 7 137 -19 113 -43 190 -58 189 -7 0 -28 -6 -48
-14z"/>
<path d="M3289 2076 c-2 -3 -77 -10 -167 -17 l-162 -13 0 -90 c0 -50 3 -135 7
-188 l6 -97 76 5 c128 9 285 25 305 31 17 5 18 13 13 112 -3 58 -11 141 -18
184 -10 69 -14 77 -34 77 -12 0 -24 -2 -26 -4z"/>
<path d="M2830 2040 c0 -5 -15 -16 -34 -24 -19 -8 -37 -24 -41 -38 -14 -42
-59 -90 -101 -109 -47 -20 -59 -43 -44 -83 11 -29 4 -76 -11 -76 -5 0 -16 12
-26 28 -32 51 -46 64 -55 50 -4 -7 -8 -29 -8 -49 0 -36 1 -37 43 -43 52 -8
286 -25 345 -26 l42 0 0 144 c0 79 -3 164 -6 190 l-7 46 -48 0 c-27 0 -49 -4
-49 -10z"/>
<path d="M2160 1742 c0 -48 22 -182 41 -248 l21 -71 66 -21 c63 -20 200 -52
224 -52 14 0 1 88 -17 117 -18 26 -82 73 -159 113 -77 41 -103 69 -117 124 -6
25 -15 46 -19 46 -5 0 -15 3 -24 6 -11 4 -16 0 -16 -14z"/>
<path d="M3524 1717 l-121 -31 -7 -115 c-4 -64 -11 -136 -16 -161 -4 -25 -7
-47 -4 -49 6 -6 113 17 206 45 76 24 88 30 97 55 7 21 6 36 -6 60 -13 25 -15
52 -10 130 5 74 3 99 -6 98 -7 -1 -66 -15 -133 -32z"/>
<path d="M3265 1670 c-27 -4 -105 -11 -172 -15 l-123 -8 0 -114 c0 -111 1
-115 27 -139 15 -14 36 -24 47 -23 44 3 57 -2 67 -24 10 -22 14 -23 82 -16 40
5 91 11 113 14 l42 6 11 75 c6 41 11 115 11 164 l0 90 -27 -1 c-16 -1 -50 -5
-78 -9z"/>
<path d="M2515 1620 c4 -30 13 -62 21 -71 8 -8 14 -32 14 -52 0 -41 11 -52 39
-37 15 7 23 6 36 -6 14 -15 19 -14 53 10 39 27 67 33 76 17 3 -5 15 -7 26 -4
12 3 28 -1 38 -9 9 -8 41 -20 70 -25 l52 -10 0 107 0 107 -132 5 c-73 3 -134
4 -136 3 -8 -7 68 -45 90 -45 14 0 33 -8 42 -19 16 -17 15 -19 -14 -24 -46
-10 -90 2 -90 24 0 13 -7 19 -22 19 -13 0 -39 10 -58 22 -19 12 -48 21 -64 19
-16 -1 -33 4 -38 11 -6 8 -6 -9 -3 -42z"/>
<path d="M2080 1463 c58 -96 184 -234 236 -259 19 -9 31 -20 28 -25 -3 -5 2
-6 10 -3 12 5 6 17 -29 58 -25 28 -60 79 -78 114 -17 34 -39 64 -49 67 -9 3
-44 24 -78 46 l-62 40 22 -38z"/>
<path d="M3747 1457 c-58 -36 -73 -51 -102 -105 -18 -35 -51 -84 -72 -110 -21
-25 -38 -49 -37 -52 3 -14 -62 -40 -162 -66 -93 -24 -116 -34 -155 -68 -26
-23 -45 -43 -44 -45 6 -5 137 40 185 64 25 12 71 36 104 51 98 49 272 215 324
313 18 33 32 61 30 61 -2 -1 -34 -20 -71 -43z"/>
<path d="M3585 1389 c-33 -11 -95 -28 -139 -37 l-79 -18 -22 -64 c-12 -36 -31
-84 -43 -107 -12 -23 -22 -44 -22 -47 0 -6 112 20 172 40 35 11 60 30 93 67
44 50 124 188 108 186 -4 -1 -35 -10 -68 -20z"/>
<path d="M2240 1393 c0 -22 75 -137 120 -183 53 -55 58 -58 153 -80 53 -13
100 -21 102 -18 3 3 -6 25 -20 49 -13 24 -34 72 -45 105 l-21 62 -67 12 c-37
7 -102 23 -144 35 -43 13 -78 20 -78 18z"/>
<path d="M2565 1288 c9 -39 69 -173 81 -181 5 -3 43 -8 84 -12 l75 -6 -37 21
c-20 11 -41 26 -45 32 -4 7 -21 20 -38 29 -19 9 -29 22 -27 32 2 10 -4 20 -12
23 -8 3 -20 25 -27 50 -11 36 -18 44 -37 44 -21 0 -23 -3 -17 -32z"/>
</g>
</svg>
